<svg width="94" height="16" viewBox="0 0 94 16" fill="none" xmlns="http://www.w3.org/2000/svg">
<path d="M8.12 15.3C6.6 15.3 5.26 15.0067 4.1 14.42C2.95333 13.8333 2.06667 12.9933 1.44 11.9C0.813333 10.7933 0.5 9.5 0.5 8.02C0.5 6.54 0.813333 5.25333 1.44 4.16C2.06667 3.05333 2.95333 2.20667 4.1 1.62C5.26 1.02 6.6 0.719999 8.12 0.719999C9.12 0.719999 10.0133 0.819999 10.8 1.02C11.5867 1.22 12.3133 1.53333 12.98 1.96V5.32C12.3933 4.85333 11.7267 4.51333 10.98 4.3C10.2467 4.08667 9.4 3.98 8.44 3.98C7.06667 3.98 6.00667 4.34 5.26 5.06C4.51333 5.76667 4.14 6.75333 4.14 8.02C4.14 9.28667 4.51333 10.28 5.26 11C6.02 11.72 7.08 12.08 8.44 12.08C9.4 12.08 10.26 11.9667 11.02 11.74C11.78 11.5133 12.4867 11.1533 13.14 10.66V14C11.8733 14.8667 10.2 15.3 8.12 15.3ZM14.1328 0.22H17.6528V15H14.1328V0.22ZM24.5653 15.3C23.3786 15.3 22.3386 15.0867 21.4453 14.66C20.552 14.22 19.8586 13.62 19.3653 12.86C18.8853 12.0867 18.6453 11.2 18.6453 10.2C18.6453 9.2 18.8853 8.32 19.3653 7.56C19.8586 6.78667 20.552 6.18667 21.4453 5.76C22.3386 5.32 23.3786 5.1 24.5653 5.1C25.752 5.1 26.792 5.32 27.6853 5.76C28.5786 6.18667 29.2653 6.78667 29.7453 7.56C30.2386 8.32 30.4853 9.2 30.4853 10.2C30.4853 11.2 30.2386 12.0867 29.7453 12.86C29.2653 13.62 28.5786 14.22 27.6853 14.66C26.792 15.0867 25.752 15.3 24.5653 15.3ZM24.5653 12.56C25.272 12.56 25.832 12.3533 26.2453 11.94C26.672 11.5133 26.8853 10.9333 26.8853 10.2C26.8853 9.46667 26.672 8.89333 26.2453 8.48C25.832 8.05333 25.272 7.84 24.5653 7.84C23.8586 7.84 23.292 8.05333 22.8653 8.48C22.452 8.89333 22.2453 9.46667 22.2453 10.2C22.2453 10.9333 22.452 11.5133 22.8653 11.94C23.292 12.3533 23.8586 12.56 24.5653 12.56ZM35.3444 15.3C34.1577 15.3 33.2577 14.9733 32.6444 14.32C32.0444 13.6533 31.7444 12.7467 31.7444 11.6V7.84H30.3844V5.4H31.7444V2.52H35.2644V5.4H37.4644V7.84H35.2644V11.12C35.2644 11.64 35.3577 12.0133 35.5444 12.24C35.7444 12.4667 36.091 12.58 36.5844 12.58C37.0244 12.58 37.4644 12.46 37.9044 12.22V14.84C37.5577 15 37.1844 15.1133 36.7844 15.18C36.3977 15.26 35.9177 15.3 35.3444 15.3ZM38.4992 0.22H42.0192V6.38C42.4459 5.95333 42.9326 5.63333 43.4792 5.42C44.0392 5.20667 44.6259 5.1 45.2392 5.1C46.5859 5.1 47.5792 5.45333 48.2192 6.16C48.8726 6.85333 49.1992 7.8 49.1992 9V15H45.6792V9.46C45.6792 8.38 45.1859 7.84 44.1992 7.84C43.7459 7.84 43.3326 7.94667 42.9592 8.16C42.5859 8.36 42.2726 8.67333 42.0192 9.1V15H38.4992V0.22ZM56.1416 15.3C54.2616 15.3 52.7816 14.86 51.7016 13.98C50.6349 13.1 50.1016 11.8533 50.1016 10.24C50.1016 8.65333 50.5749 7.4 51.5216 6.48C52.4816 5.56 53.8616 5.1 55.6616 5.1C56.8082 5.1 57.7882 5.32 58.6016 5.76C59.4282 6.18667 60.0482 6.78 60.4616 7.54C60.8882 8.28667 61.1016 9.13333 61.1016 10.08V11.38H53.4416C53.5749 11.9133 53.9082 12.3 54.4416 12.54C54.9749 12.78 55.7016 12.9 56.6216 12.9C57.2482 12.9 57.8882 12.8467 58.5416 12.74C59.2082 12.6333 59.7816 12.4867 60.2616 12.3V14.62C59.7682 14.82 59.1482 14.98 58.4016 15.1C57.6682 15.2333 56.9149 15.3 56.1416 15.3ZM57.7816 9.18C57.7282 8.66 57.5149 8.25333 57.1416 7.96C56.7682 7.66667 56.2549 7.52 55.6016 7.52C54.9616 7.52 54.4549 7.67333 54.0816 7.98C53.7082 8.27333 53.4949 8.67333 53.4416 9.18H57.7816ZM66.2337 15.3C65.4604 15.3 64.6537 15.22 63.8137 15.06C62.9737 14.9133 62.3071 14.7 61.8137 14.42V11.84C62.3604 12.16 63.0137 12.4267 63.7737 12.64C64.5471 12.84 65.2537 12.94 65.8937 12.94C66.3604 12.94 66.7004 12.9067 66.9137 12.84C67.1271 12.7733 67.2337 12.64 67.2337 12.44C67.2337 12.28 67.1604 12.1533 67.0137 12.06C66.8804 11.9533 66.6271 11.8467 66.2537 11.74C65.8937 11.62 65.4737 11.4933 64.9937 11.36C64.1804 11.12 63.5404 10.8733 63.0737 10.62C62.6071 10.3667 62.2604 10.0467 62.0337 9.66C61.8071 9.27333 61.6937 8.78667 61.6937 8.2C61.6937 7.16 62.1004 6.38667 62.9137 5.88C63.7404 5.36 64.8671 5.1 66.2937 5.1C66.9871 5.1 67.7137 5.17333 68.4737 5.32C69.2471 5.46667 69.8271 5.66 70.2137 5.9V8.44C69.8137 8.17333 69.2804 7.95333 68.6137 7.78C67.9604 7.60667 67.3471 7.52 66.7737 7.52C66.3204 7.52 65.9671 7.56667 65.7137 7.66C65.4604 7.74 65.3337 7.88667 65.3337 8.1C65.3337 8.3 65.4604 8.45333 65.7137 8.56C65.9671 8.66667 66.4204 8.8 67.0737 8.96C67.5004 9.06667 67.6804 9.11333 67.6137 9.1C68.4671 9.32667 69.1271 9.58 69.5937 9.86C70.0604 10.14 70.3871 10.4733 70.5737 10.86C70.7737 11.2333 70.8737 11.7133 70.8737 12.3C70.8737 13.22 70.4737 13.9533 69.6737 14.5C68.8871 15.0333 67.7404 15.3 66.2337 15.3ZM73.1895 8.46C72.7229 8.46 72.3162 8.29333 71.9695 7.96C71.6362 7.61333 71.4695 7.20667 71.4695 6.74C71.4695 6.27333 71.6362 5.87333 71.9695 5.54C72.3162 5.19333 72.7229 5.02 73.1895 5.02C73.6562 5.02 74.0562 5.19333 74.3895 5.54C74.7362 5.87333 74.9095 6.27333 74.9095 6.74C74.9095 7.20667 74.7362 7.61333 74.3895 7.96C74.0562 8.29333 73.6562 8.46 73.1895 8.46ZM73.1895 14.82C72.7229 14.82 72.3162 14.6533 71.9695 14.32C71.6362 13.9733 71.4695 13.5667 71.4695 13.1C71.4695 12.6333 71.6362 12.2333 71.9695 11.9C72.3162 11.5533 72.7229 11.38 73.1895 11.38C73.6562 11.38 74.0562 11.5533 74.3895 11.9C74.7362 12.2333 74.9095 12.6333 74.9095 13.1C74.9095 13.5667 74.7362 13.9733 74.3895 14.32C74.0562 14.6533 73.6562 14.82 73.1895 14.82ZM81.5431 15.3C79.8365 15.3 78.5165 14.8533 77.5831 13.96C76.6631 13.0667 76.2031 11.8133 76.2031 10.2C76.2031 8.62667 76.6231 7.38667 77.4631 6.48C78.3165 5.56 79.5165 5.1 81.0631 5.1C82.1165 5.1 83.0098 5.30667 83.7431 5.72C84.4765 6.13333 85.0231 6.7 85.3831 7.42C85.7565 8.14 85.9431 8.96667 85.9431 9.9V10.4H76.7031C76.7031 11.84 77.1365 12.94 78.0031 13.7C78.8698 14.46 80.0498 14.84 81.5431 14.84C82.1565 14.84 82.7565 14.7867 83.3431 14.68C83.9431 14.56 84.4698 14.4133 84.9231 14.24V14.72C84.5498 14.88 84.0365 15.0133 83.3831 15.12C82.7431 15.24 82.1298 15.3 81.5431 15.3ZM85.4431 9.94C85.4431 8.62 85.0765 7.56 84.3431 6.76C83.6231 5.96 82.5298 5.56 81.0631 5.56C79.6098 5.56 78.5165 5.97333 77.7831 6.8C77.0631 7.62667 76.7031 8.67333 76.7031 9.94H85.4431ZM88.3516 5.4H88.9116V7.6C89.3382 6.81333 89.9382 6.25333 90.7116 5.92C91.4849 5.57333 92.4182 5.4 93.5116 5.4V5.88C91.0582 5.88 89.5249 6.82 88.9116 8.7V15H88.3516V5.4Z" fill="#EAEAEA"/>
</svg>
