<svg width="16" height="17" viewBox="0 0 16 17" fill="none" xmlns="http://www.w3.org/2000/svg">
<path fill-rule="evenodd" clip-rule="evenodd" d="M16 7C16 4.19108 16 2.78661 15.3259 1.77772C15.034 1.34096 14.659 0.965956 14.2223 0.674122C13.2134 0 11.8089 0 9 0H7C4.19108 0 2.78661 0 1.77772 0.674122C1.34096 0.965956 0.965956 1.34096 0.674122 1.77772C0 2.78661 0 4.19108 0 7C0 9.80892 0 11.2134 0.674122 12.2223C0.965956 12.659 1.34096 13.034 1.77772 13.3259C2.65907 13.9148 3.8423 13.9892 6 13.9986V14L7.10557 16.2111C7.4741 16.9482 8.5259 16.9482 8.89443 16.2111L10 14V13.9986C12.1577 13.9892 13.3409 13.9148 14.2223 13.3259C14.659 13.034 15.034 12.659 15.3259 12.2223C16 11.2134 16 9.80892 16 7ZM5 4C4.44772 4 4 4.44772 4 5C4 5.55228 4.44772 6 5 6H11C11.5523 6 12 5.55228 12 5C12 4.44772 11.5523 4 11 4H5ZM5 8C4.44772 8 4 8.44772 4 9C4 9.55228 4.44772 10 5 10H8C8.55228 10 9 9.55228 9 9C9 8.44772 8.55228 8 8 8H5Z" fill="#5A42EE" fill-opacity="0.7"/>
</svg>
