<svg width="6" height="6" viewBox="0 0 6 6" fill="none" xmlns="http://www.w3.org/2000/svg">
<path fill-rule="evenodd" clip-rule="evenodd" d="M0.109834 5.35985C-0.0366113 5.50628 -0.0366113 5.74373 0.109834 5.89017C0.256283 6.03661 0.493718 6.03661 0.640167 5.89017L3 3.53033L5.35985 5.89017C5.50628 6.03661 5.74373 6.03661 5.89017 5.89017C6.03661 5.74373 6.03661 5.50628 5.89017 5.35985L3.53033 3L5.89017 0.640167C6.03661 0.493718 6.03661 0.256283 5.89017 0.109834C5.74373 -0.0366113 5.50628 -0.0366113 5.35985 0.109834L3 2.46968L0.640167 0.109834C0.493718 -0.0366113 0.256283 -0.0366113 0.109834 0.109834C-0.0366113 0.256283 -0.0366113 0.493718 0.109834 0.640167L2.46968 3L0.109834 5.35985Z" fill="white"/>
</svg>
