<svg width="30" height="30" viewBox="0 0 30 30" fill="none" xmlns="http://www.w3.org/2000/svg">
<path d="M9.13469 25.625C8.51323 25.625 7.98125 25.4038 7.53875 24.9613C7.09625 24.5188 6.875 23.9868 6.875 23.3653V7.50003H6.5625C6.29688 7.50003 6.07427 7.41014 5.89469 7.23035C5.7149 7.05055 5.625 6.82785 5.625 6.56222C5.625 6.29639 5.7149 6.07378 5.89469 5.89441C6.07427 5.71483 6.29688 5.62503 6.5625 5.62503H11.25C11.25 5.31899 11.3578 5.05816 11.5734 4.84254C11.7889 4.62712 12.0496 4.51941 12.3556 4.51941H17.6444C17.9504 4.51941 18.2111 4.62712 18.4266 4.84254C18.6422 5.05816 18.75 5.31899 18.75 5.62503H23.4375C23.7031 5.62503 23.9257 5.71493 24.1053 5.89472C24.2851 6.07451 24.375 6.29722 24.375 6.56285C24.375 6.82868 24.2851 7.05128 24.1053 7.23066C23.9257 7.41024 23.7031 7.50003 23.4375 7.50003H23.125V23.3653C23.125 23.9868 22.9037 24.5188 22.4613 24.9613C22.0188 25.4038 21.4868 25.625 20.8653 25.625H9.13469ZM21.25 7.50003H8.75V23.3653C8.75 23.4776 8.78604 23.5698 8.85812 23.6419C8.93021 23.714 9.0224 23.75 9.13469 23.75H20.8653C20.9776 23.75 21.0698 23.714 21.1419 23.6419C21.214 23.5698 21.25 23.4776 21.25 23.3653V7.50003ZM12.6928 21.25C12.9584 21.25 13.181 21.1602 13.3606 20.9807C13.54 20.8009 13.6297 20.5782 13.6297 20.3125V10.9375C13.6297 10.6719 13.5398 10.4492 13.36 10.2694C13.1804 10.0898 12.9577 10 12.6919 10C12.4263 10 12.2036 10.0898 12.0241 10.2694C11.8447 10.4492 11.755 10.6719 11.755 10.9375V20.3125C11.755 20.5782 11.8448 20.8009 12.0244 20.9807C12.2042 21.1602 12.427 21.25 12.6928 21.25ZM17.3081 21.25C17.5737 21.25 17.7964 21.1602 17.9759 20.9807C18.1553 20.8009 18.245 20.5782 18.245 20.3125V10.9375C18.245 10.6719 18.1552 10.4492 17.9756 10.2694C17.7958 10.0898 17.573 10 17.3072 10C17.0416 10 16.819 10.0898 16.6394 10.2694C16.46 10.4492 16.3703 10.6719 16.3703 10.9375V20.3125C16.3703 20.5782 16.4602 20.8009 16.64 20.9807C16.8196 21.1602 17.0423 21.25 17.3081 21.25Z" fill="#FF4E43"/>
</svg>
