<svg width="30" height="30" viewBox="0 0 30 30" fill="none" xmlns="http://www.w3.org/2000/svg">
<path d="M9.13469 25.6252C8.51323 25.6252 7.98125 25.4039 7.53875 24.9614C7.09625 24.5189 6.875 23.9869 6.875 23.3655V7.50016H6.5625C6.29688 7.50016 6.07427 7.41026 5.89469 7.23047C5.7149 7.05068 5.625 6.82797 5.625 6.56234C5.625 6.29651 5.7149 6.07391 5.89469 5.89453C6.07427 5.71495 6.29688 5.62516 6.5625 5.62516H11.25C11.25 5.31911 11.3578 5.05828 11.5734 4.84266C11.7889 4.62724 12.0496 4.51953 12.3556 4.51953H17.6444C17.9504 4.51953 18.2111 4.62724 18.4266 4.84266C18.6422 5.05828 18.75 5.31911 18.75 5.62516H23.4375C23.7031 5.62516 23.9257 5.71505 24.1053 5.89484C24.2851 6.07464 24.375 6.29734 24.375 6.56297C24.375 6.8288 24.2851 7.05141 24.1053 7.23078C23.9257 7.41036 23.7031 7.50016 23.4375 7.50016H23.125V23.3655C23.125 23.9869 22.9038 24.5189 22.4613 24.9614C22.0188 25.4039 21.4868 25.6252 20.8653 25.6252H9.13469ZM21.25 7.50016H8.75V23.3655C8.75 23.4778 8.78604 23.5699 8.85812 23.642C8.93021 23.7141 9.0224 23.7502 9.13469 23.7502H20.8653C20.9776 23.7502 21.0698 23.7141 21.1419 23.642C21.214 23.5699 21.25 23.4778 21.25 23.3655V7.50016ZM12.6928 21.2502C12.9584 21.2502 13.181 21.1604 13.3606 20.9808C13.54 20.801 13.6297 20.5783 13.6297 20.3127V10.9377C13.6297 10.672 13.5398 10.4493 13.36 10.2695C13.1804 10.0899 12.9577 10.0002 12.6919 10.0002C12.4263 10.0002 12.2036 10.0899 12.0241 10.2695C11.8447 10.4493 11.755 10.672 11.755 10.9377V20.3127C11.755 20.5783 11.8448 20.801 12.0244 20.9808C12.2042 21.1604 12.427 21.2502 12.6928 21.2502ZM17.3081 21.2502C17.5737 21.2502 17.7964 21.1604 17.9759 20.9808C18.1553 20.801 18.245 20.5783 18.245 20.3127V10.9377C18.245 10.672 18.1552 10.4493 17.9756 10.2695C17.7958 10.0899 17.573 10.0002 17.3072 10.0002C17.0416 10.0002 16.819 10.0899 16.6394 10.2695C16.46 10.4493 16.3703 10.672 16.3703 10.9377V20.3127C16.3703 20.5783 16.4602 20.801 16.64 20.9808C16.8196 21.1604 17.0423 21.2502 17.3081 21.2502Z" fill="#A9A9A9"/>
</svg>
