<svg width="48" height="48" viewBox="0 0 48 48" fill="none" xmlns="http://www.w3.org/2000/svg">
<g id="Edit">
<path id="Rectangle 1" d="M27.8787 12.7071L11.6846 28.9012C11.6715 28.9143 11.658 28.9277 11.6442 28.9414C11.4921 29.0926 11.2994 29.2841 11.1626 29.5259C11.0257 29.7676 10.9606 30.0313 10.9092 30.2396C10.9045 30.2585 10.9 30.277 10.8955 30.2949L9.23197 36.949C9.22917 36.9602 9.22625 36.9718 9.22323 36.9839C9.18641 37.1303 9.1354 37.3333 9.11783 37.5129C9.09762 37.7196 9.09093 38.1715 9.45971 38.5403C9.82848 38.9091 10.2804 38.9024 10.4871 38.8822C10.6667 38.8646 10.8697 38.8136 11.0161 38.7768C11.0281 38.7738 11.0398 38.7708 11.051 38.768L17.7051 37.1045C17.723 37.1 17.7415 37.0955 17.7604 37.0908C17.9687 37.0394 18.2324 36.9743 18.4741 36.8374C18.7159 36.7006 18.9074 36.5079 19.0586 36.3558C19.0723 36.342 19.0857 36.3285 19.0988 36.3154L19.0988 36.3154L35.2929 20.1213L35.3314 20.0829C35.6313 19.7831 35.9228 19.4917 36.1308 19.219C36.3653 18.9116 36.5858 18.5137 36.5858 18C36.5858 17.4863 36.3653 17.0884 36.1308 16.781C35.9228 16.5083 35.6313 16.2169 35.3314 15.9171L35.2929 15.8787L32.1213 12.7071L32.0829 12.6686C31.7831 12.3687 31.4917 12.0772 31.219 11.8692C30.9116 11.6347 30.5137 11.4142 30 11.4142C29.4863 11.4142 29.0884 11.6347 28.781 11.8692C28.5083 12.0772 28.2169 12.3687 27.9171 12.6686C27.9043 12.6814 27.8915 12.6943 27.8787 12.7071Z" stroke="white" stroke-width="2"/>
<path id="Vector 107" d="M25 15L31 11L37 17L33 23L25 15Z" fill="white"/>
</g>
</svg>
