<svg width="30" height="30" viewBox="0 0 30 30" fill="none" xmlns="http://www.w3.org/2000/svg">
<path d="M16.1778 16.0097L14.6681 14.1347C14.5513 13.992 14.4026 13.9206 14.2222 13.9206C14.042 13.9206 13.8934 13.9959 13.7766 14.1466L12.0553 16.4038C11.9047 16.596 11.8806 16.7948 11.9831 17C12.0856 17.2052 12.2564 17.3078 12.4953 17.3078H21.8797C22.1184 17.3078 22.2892 17.2052 22.3919 17C22.4944 16.7948 22.4743 16.596 22.3316 16.4038L19.6009 12.7956C19.4839 12.645 19.3332 12.5697 19.1491 12.5697C18.9647 12.5697 18.8141 12.645 18.6972 12.7956L16.1778 16.0097ZM10.0722 21.875C9.44073 21.875 8.90625 21.6562 8.46875 21.2188C8.03125 20.7812 7.8125 20.2468 7.8125 19.6153V5.38469C7.8125 4.75323 8.03125 4.21875 8.46875 3.78125C8.90625 3.34375 9.44073 3.125 10.0722 3.125H24.3028C24.9343 3.125 25.4688 3.34375 25.9062 3.78125C26.3438 4.21875 26.5625 4.75323 26.5625 5.38469V19.6153C26.5625 20.2468 26.3438 20.7812 25.9062 21.2188C25.4688 21.6562 24.9343 21.875 24.3028 21.875H10.0722ZM10.0722 20H24.3028C24.3991 20 24.4872 19.9599 24.5672 19.8797C24.6474 19.7997 24.6875 19.7116 24.6875 19.6153V5.38469C24.6875 5.28844 24.6474 5.20031 24.5672 5.12031C24.4872 5.0401 24.3991 5 24.3028 5H10.0722C9.97594 5 9.88781 5.0401 9.80781 5.12031C9.7276 5.20031 9.6875 5.28844 9.6875 5.38469V19.6153C9.6875 19.7116 9.7276 19.7997 9.80781 19.8797C9.88781 19.9599 9.97594 20 10.0722 20ZM5.69719 26.25C5.06573 26.25 4.53125 26.0312 4.09375 25.5938C3.65625 25.1562 3.4375 24.6218 3.4375 23.9903V8.82219C3.4375 8.55615 3.52729 8.33333 3.70688 8.15375C3.88625 7.97437 4.10896 7.88469 4.375 7.88469C4.64104 7.88469 4.86385 7.97437 5.04344 8.15375C5.22281 8.33333 5.3125 8.55615 5.3125 8.82219V23.9903C5.3125 24.0866 5.3526 24.1747 5.43281 24.2547C5.51281 24.3349 5.60094 24.375 5.69719 24.375H20.8653C21.1314 24.375 21.3542 24.4647 21.5338 24.6441C21.7131 24.8236 21.8028 25.0465 21.8028 25.3125C21.8028 25.5785 21.7131 25.8013 21.5338 25.9806C21.3542 26.1602 21.1314 26.25 20.8653 26.25H5.69719Z" fill="#6644FF"/>
</svg>
