<svg width="20" height="20" viewBox="0 0 20 20" fill="none" xmlns="http://www.w3.org/2000/svg">
<path d="M17.3667 3.84123C16.941 3.41541 16.4357 3.07761 15.8795 2.84714C15.3232 2.61667 14.7271 2.49805 14.125 2.49805C13.5229 2.49805 12.9268 2.61667 12.3705 2.84714C11.8143 3.07761 11.309 3.41541 10.8833 3.84123L10 4.72457L9.11666 3.84123C8.25692 2.98149 7.09086 2.49849 5.875 2.49849C4.65914 2.49849 3.49307 2.98149 2.63333 3.84123C1.77359 4.70098 1.29059 5.86704 1.29059 7.0829C1.29059 8.29876 1.77359 9.46482 2.63333 10.3246L3.51666 11.2079L10 17.6912L16.4833 11.2079L17.3667 10.3246C17.7925 9.89894 18.1303 9.39358 18.3608 8.83736C18.5912 8.28115 18.7099 7.68497 18.7099 7.0829C18.7099 6.48083 18.5912 5.88465 18.3608 5.32844C18.1303 4.77222 17.7925 4.26686 17.3667 3.84123V3.84123Z" stroke="#A9A9A9" stroke-width="2" stroke-linecap="round" stroke-linejoin="round"/>
</svg>
